<?xml version="1.0" standalone="no"?>
<!DOCTYPE svg PUBLIC "-//W3C//DTD SVG 20010904//EN"
 "http://www.w3.org/TR/2001/REC-SVG-20010904/DTD/svg10.dtd">
<svg version="1.0" xmlns="http://www.w3.org/2000/svg"
 width="700.000000pt" height="700.000000pt" viewBox="0 0 700.000000 700.000000"
 preserveAspectRatio="xMidYMid meet">
<metadata>
Created by potrace 1.11, written by Peter Selinger 2001-2013
</metadata>
<g transform="translate(0.000000,700.000000) scale(0.100000,-0.100000)"
fill="#000000" stroke="none">
<path d="M0 3500 l0 -3500 3500 0 3500 0 0 3500 0 3500 -3500 0 -3500 0 0
-3500z m5415 926 c182 -55 300 -147 369 -286 39 -80 70 -218 64 -288 l-3 -37
-255 -3 -256 -2 -12 44 c-26 99 -122 160 -252 161 -65 0 -84 -4 -142 -33 -94
-46 -165 -126 -227 -255 -63 -132 -85 -223 -86 -357 0 -99 2 -109 33 -172 50
-103 126 -148 247 -148 75 0 130 18 191 62 40 28 114 114 114 132 0 3 -47 6
-105 6 -58 0 -105 1 -105 3 0 3 68 334 75 365 l5 22 390 0 390 0 -5 -22 c-12
-54 -215 -1024 -215 -1030 0 -5 -83 -8 -185 -8 l-185 0 0 96 0 95 -59 -45
c-65 -50 -166 -103 -251 -132 -43 -15 -84 -19 -185 -19 -147 0 -224 16 -340
71 -501 237 -525 1083 -42 1540 148 141 304 219 521 260 48 9 128 12 246 10
155 -3 185 -7 265 -30z m-3811 -58 c3 -18 21 -233 41 -478 20 -245 39 -465 43
-490 7 -44 8 -44 241 478 l235 522 289 0 c227 0 288 -3 284 -12 -17 -44 -842
-1785 -850 -1796 -7 -9 -80 -12 -326 -10 l-316 3 -97 890 c-53 490 -97 898
-97 908 -1 16 18 17 274 17 l274 0 5 -32z m2250 -850 c92 -486 170 -895 173
-910 l6 -28 -282 0 c-216 0 -283 3 -286 13 -3 6 -13 66 -22 132 l-18 120 -309
0 -310 0 -76 -130 -76 -130 -278 -3 c-231 -2 -277 0 -274 11 2 8 244 418 538
911 l535 896 255 0 256 0 168 -882z"/>
<path d="M3257 3625 c-25 -44 -84 -145 -130 -225 l-85 -145 161 -3 c88 -1 161
-1 162 0 1 2 -12 104 -30 228 l-31 225 -47 -80z"/>
</g>
</svg>
